# xmcd
#
# Track frame offsets: 
#        150
#        13615
#        26653
#        39105
#        51643
#        64764
#        75134
#        87724
#
# Disc length: 1378 seconds
#
# Revision: 0
# Processed by: cddbd v1.5.2PL0 Copyright (c) Steve Scherf et al.
# Submitted via: ExactAudioCopy v0.99pb4
#
DISCID=5b056008
DTITLE=Various Artist - Mowtown Legends, Vol. 3
DYEAR=1994
DGENRE=Motown
TTITLE0=Jr. Walker and The All Stars - Shotgun
TTITLE1=Diana Ross and The Supremes - Stop! In the Name of Love
TTITLE2=Gladys Knight and The Pips - I Heard It Through the Grapevine
TTITLE3=Smokey Robinson and The Miracles - I Second That Emotion
TTITLE4=Stevie Wonder - Uptight (Every5thing's Alright)
TTITLE5=Marvin Gaye and Tammi Terrell - Ain't Nothing Like the Real Thin
TTITLE5=g
TTITLE6=The Temptations - I Wish It Would Rain
TTITLE7=Diana Ross and The Supremes - Someday We'll Be Together
EXTD=
EXTT0=
EXTT1=
EXTT2=
EXTT3=
EXTT4=
EXTT5=
EXTT6=
EXTT7=
PLAYORDER=
